# File created by Blade
# Date/Time:  Thu Sep 25 19:26:26 2014
# Frame Rate: 120.000 fps
#------------------------------------------------------
:FULLY-SPECIFIED
:DEGREES
772
root 0.527227 31.727742 -12.755665 112.361496 13.058484 8.124992
Spine 44.078996 -16.754959 13.915007
Head 12.018748 -10.789463 -52.205529
LeftShoulder -6.404072 -22.789349 35.657577
LeftArm 28.744183 -34.458367 -15.155228
LeftForeArm 58.269278 0.000000 68.677080
LeftHand -35.500151 -0.000000 46.261138
LeftHandThumb1 -26.253704 0.000000 33.147579
RightShoulder 41.974879 76.083241 -27.323919
RightArm -2.569817 29.326416 48.524598
RightForeArm -54.165876 -0.000000 68.396428
RightHand -9.863932 0.000000 -61.924832
RightHandThumb1 -24.326973 -0.000000 -32.862282
LeftUpLeg -118.659330 2.379405 -4.606033
LeftLeg -1.723811 -0.000000 0.000000
LeftFoot 4.694249 3.283632 -25.876228
LeftToeBase 9.557295 -0.000000 -0.000000
RightUpLeg -119.011111 -17.633387 29.485274
RightLeg -1.392348 -0.000000 0.000000
RightFoot 5.013582 -13.249776 15.844110
RightToeBase 3.237674 -0.000000 -0.000000
773
root 0.544859 31.722174 -12.768743 112.429139 13.138472 8.201905
Spine 43.975545 -17.400567 13.815253
Head 11.270497 -11.339605 -54.450709
LeftShoulder -6.956105 -22.786010 35.401877
LeftArm 28.795010 -33.966339 -14.815022
LeftForeArm 57.916062 -0.000000 68.504052
LeftHand -35.650565 -0.000000 46.641312
LeftHandThumb1 -26.253704 0.000000 33.147579
RightShoulder 42.962070 76.427520 -26.967596
RightArm -2.598532 29.834186 49.160502
RightForeArm -54.430077 -0.000000 68.294913
RightHand -9.916360 -0.000000 -61.829596
RightHandThumb1 -24.326973 -0.000000 -32.862282
LeftUpLeg -118.695988 2.287831 -4.530977
LeftLeg -1.798298 -0.000000 0.000000
LeftFoot 4.760769 3.245374 -25.856718
LeftToeBase 9.532230 -0.000000 -0.000000
RightUpLeg -119.036371 -17.684550 29.619722
RightLeg -1.533511 -0.000000 0.000000
RightFoot 5.104906 -13.256276 15.891068
RightToeBase 3.294616 -0.000000 -0.000000
774
root 0.564717 31.714792 -12.785380 112.472723 13.234860 8.295078
Spine 43.823658 -17.926514 13.785132
Head 10.776119 -11.795020 -56.271628
LeftShoulder -7.391559 -22.631869 35.103609
LeftArm 29.101151 -33.655556 -14.557791
LeftForeArm 57.632160 0.000000 68.236563
LeftHand -35.467486 -0.000000 46.563504
LeftHandThumb1 -26.253704 0.000000 33.147579
RightShoulder 44.186035 76.666141 -26.220684
RightArm -2.690186 30.162222 49.572832
RightForeArm -54.628857 -0.000000 68.154370
RightHand -9.978548 -0.000000 -61.735315
RightHandThumb1 -24.326973 -0.000000 -32.862282
LeftUpLeg -118.707695 2.214008 -4.368866
LeftLeg -1.870849 -0.000000 0.000000
LeftFoot 4.777029 3.287629 -25.837030
LeftToeBase 9.466124 -0.000000 -0.000000
RightUpLeg -119.062098 -17.750605 29.804683
RightLeg -1.685378 -0.000000 0.000000
RightFoot 5.168116 -13.280134 16.052479
RightToeBase 3.400425 -0.000000 -0.000000
775
root 0.583595 31.708508 -12.802199 112.518200 13.319313 8.392682
Spine 43.645430 -18.401822 13.768023
Head 10.341567 -12.345900 -58.047232
LeftShoulder -7.737021 -22.511610 34.839842
LeftArm 29.323017 -33.340189 -14.291983
LeftForeArm 57.344117 0.000000 68.031000
LeftHand -35.224105 -0.000000 46.362288
LeftHandThumb1 -26.253704 0.000000 33.147579
RightShoulder 45.008161 76.870348 -25.820198
RightArm -2.692546 30.496829 50.086511
RightForeArm -54.777793 -0.000000 67.951368
RightHand -10.090541 -0.000000 -61.791056
RightHandThumb1 -24.326973 -0.000000 -32.862282
LeftUpLeg -118.728573 2.119050 -4.253478
LeftLeg -1.930759 -0.000000 0.000000
LeftFoot 4.826689 3.261932 -25.831432
LeftToeBase 9.526162 -0.000000 -0.000000
RightUpLeg -119.052149 -17.864887 29.902791
RightLeg -1.825264 -0.000000 0.000000
RightFoot 5.274773 -13.223781 16.089648
RightToeBase 3.283614 -0.000000 -0.000000
776
root 0.599171 31.703404 -12.818512 112.516312 13.429656 8.442584
Spine 43.562438 -18.843525 13.672080
Head 9.762734 -12.852396 -59.558079
LeftShoulder -8.145018 -22.264960 34.633485
LeftArm 29.592074 -33.126840 -14.030874
LeftForeArm 56.983131 -0.000000 67.806884
LeftHand -35.071084 -0.000000 46.231997
LeftHandThumb1 -26.253704 0.000000 33.147579
RightShoulder 46.049733 77.093392 -25.197664
RightArm -2.753146 30.819226 50.513645
RightForeArm -54.837006 -0.000000 67.751245
RightHand -10.067845 -0.000000 -61.724137
RightHandThumb1 -24.326973 -0.000000 -32.862282
LeftUpLeg -118.712953 2.078078 -4.139724
LeftLeg -2.006094 -0.000000 0.000000
LeftFoot 4.885570 3.247130 -25.810757
LeftToeBase 9.503692 -0.000000 -0.000000
RightUpLeg -118.965592 -17.929550 29.997746
RightLeg -2.018845 -0.000000 0.000000
RightFoot 5.397433 -13.267432 16.129621
RightToeBase 3.263401 -0.000000 -0.000000
777
root 0.616711 31.696093 -12.837534 112.542210 13.559321 8.492431
Spine 43.366153 -19.224061 13.657809
Head 9.322101 -13.497439 -61.177949
LeftShoulder -8.474559 -22.087333 34.369236
LeftArm 29.921135 -32.850943 -13.795968
LeftForeArm 56.613625 -0.000000 67.606099
LeftHand -34.840981 -0.000000 45.865212
LeftHandThumb1 -26.253704 0.000000 33.147579
RightShoulder 46.898936 77.241774 -24.671745
RightArm -2.709993 31.091653 51.037104
RightForeArm -54.946368 0.000000 67.524300
RightHand -10.005598 0.000000 -61.622299
RightHandThumb1 -24.326973 -0.000000 -32.862282
LeftUpLeg -118.734694 2.059213 -3.974925
LeftLeg -2.073305 -0.000000 0.000000
LeftFoot 4.913453 3.265667 -25.790644
LeftToeBase 9.511987 -0.000000 -0.000000
RightUpLeg -118.892330 -17.994235 30.090248
RightLeg -2.217284 -0.000000 0.000000
RightFoot 5.493666 -13.344475 16.205206
RightToeBase 3.294561 -0.000000 -0.000000
778
root 0.637370 31.688519 -12.855177 112.510215 13.648266 8.560570
Spine 43.268598 -19.647236 13.557677
Head 8.781528 -14.168620 -62.537075
LeftShoulder -8.773577 -21.834021 34.193668
LeftArm 30.110819 -32.675204 -13.553069
LeftForeArm 56.200351 -0.000000 67.473913
LeftHand -34.597311 -0.000000 45.498761
LeftHandThumb1 -26.253704 0.000000 33.147579
RightShoulder 47.771722 77.419007 -24.123601
RightArm -2.691560 31.411636 51.529614
RightForeArm -55.067232 -0.000000 67.251444
RightHand -9.975301 0.000000 -61.503884
RightHandThumb1 -24.326973 -0.000000 -32.862282
LeftUpLeg -118.676350 1.991302 -3.870098
LeftLeg -2.155486 -0.000000 0.000000
LeftFoot 4.951977 3.234359 -25.784904
LeftToeBase 9.529195 -0.000000 -0.000000
RightUpLeg -118.788352 -18.122097 30.147235
RightLeg -2.403740 -0.000000 0.000000
RightFoot 5.577341 -13.394997 16.297182
RightToeBase 3.308156 -0.000000 -0.000000
779
root 0.655112 31.680163 -12.877156 112.425375 13.786229 8.587161
Spine 43.203433 -19.969900 13.469023
Head 8.283291 -14.438353 -63.466055
LeftShoulder -9.005405 -21.477512 34.002310
LeftArm 30.374816 -32.631742 -13.311909
LeftForeArm 55.915145 -0.000000 67.281444
LeftHand -34.476090 0.000000 45.039543
LeftHandThumb1 -26.253704 0.000000 33.147579
RightShoulder 48.828134 77.591075 -23.356774
RightArm -2.801817 31.709946 51.929235
RightForeArm -55.163240 0.000000 67.042239
RightHand -10.227565 -0.000000 -61.121650
RightHandThumb1 -24.326973 -0.000000 -32.862282
LeftUpLeg -118.609266 1.969959 -3.758947
LeftLeg -2.204484 -0.000000 0.000000
LeftFoot 4.984520 3.172291 -25.772829
LeftToeBase 9.534935 -0.000000 -0.000000
RightUpLeg -118.573294 -18.264382 30.124196
RightLeg -2.621780 -0.000000 0.000000
RightFoot 5.666418 -13.558500 16.403282
RightToeBase 3.323710 -0.000000 -0.000000
780
root 0.658285 31.669998 -12.884677 112.288328 13.977005 8.467050
Spine 43.294576 -20.216121 13.190053
Head 7.639977 -15.124522 -64.734861
LeftShoulder -9.434475 -21.217131 33.871210
LeftArm 30.672917 -32.453994 -13.029617
LeftForeArm 55.606229 -0.000000 67.104086
LeftHand -34.305625 -0.000000 44.505724
LeftHandThumb1 -26.253704 0.000000 33.147579
RightShoulder 50.018292 77.789453 -22.487468
RightArm -2.862343 32.178560 52.454248
RightForeArm -55.353623 -0.000000 66.891415
RightHand -10.226120 -0.000000 -60.707693
RightHandThumb1 -24.326973 -0.000000 -32.862282
LeftUpLeg -118.516135 2.126031 -3.697315
LeftLeg -2.269883 -0.000000 0.000000
LeftFoot 5.003459 3.011326 -25.837553
LeftToeBase 9.521418 -0.000000 -0.000000
RightUpLeg -118.251072 -18.166150 30.208120
RightLeg -2.893970 -0.000000 0.000000
RightFoot 5.794504 -13.586278 16.345290
RightToeBase 3.376748 -0.000000 -0.000000
781
root 0.676889 31.661780 -12.905592 112.196561 14.127269 8.484877
Spine 43.258603 -20.503554 13.095872
Head 7.125119 -15.684994 -65.631057
LeftShoulder -9.716246 -20.930639 33.736000
LeftArm 30.962764 -32.374062 -12.847120
LeftForeArm 55.227898 -0.000000 66.972572
LeftHand -34.129816 0.000000 44.202670
LeftHandThumb1 -26.253704 0.000000 33.147579
RightShoulder 50.562172 77.950938 -22.168385
RightArm -2.866675 32.449689 52.953606
RightForeArm -55.189823 -0.000000 66.687143
RightHand -10.119565 -0.000000 -60.333544
RightHandThumb1 -24.326973 -0.000000 -32.862282
LeftUpLeg -118.437096 2.108530 -3.590195
LeftLeg -2.331215 -0.000000 0.000000
LeftFoot 5.048294 2.944477 -25.824439
LeftToeBase 9.519817 -0.000000 -0.000000
RightUpLeg -118.044539 -18.252528 30.270032
RightLeg -3.121686 -0.000000 0.000000
RightFoot 5.918491 -13.667978 16.396103
RightToeBase 3.350883 -0.000000 -0.000000
782
root 0.698276 31.653481 -12.927250 112.106807 14.272003 8.542808
Spine 43.206411 -20.877222 12.978300
Head 6.591324 -16.293667 -66.532116
LeftShoulder -10.058647 -20.613051 33.578651
LeftArm 31.324441 -32.272572 -12.669679
LeftForeArm 54.963202 -0.000000 66.793770
LeftHand -33.911130 -0.000000 43.668819
LeftHandThumb1 -26.253704 0.000000 33.147579
RightShoulder 51.290610 78.092381 -21.733108
RightArm -2.923954 32.762354 53.440632
RightForeArm -55.184011 -0.000000 66.532776
RightHand -10.200985 -0.000000 -59.859733
RightHandThumb1 -24.326973 -0.000000 -32.862282
LeftUpLeg -118.318150 2.080130 -3.416948
LeftLeg -2.451693 -0.000000 0.000000
LeftFoot 5.114620 2.935487 -25.824297
LeftToeBase 9.435675 -0.000000 -0.000000
RightUpLeg -117.857525 -18.385272 30.348309
RightLeg -3.342459 -0.000000 0.000000
RightFoot 6.018446 -13.759115 16.480846
RightToeBase 3.381338 -0.000000 -0.000000
